<svg width="18" height="18" viewBox="0 0 18 18" fill="none" xmlns="http://www.w3.org/2000/svg">
<g clip-path="url(#clip0_2316_602)">
<path d="M2.6528 2.89062H0.046875V0.890625H4.44095L4.88976 4.89062H16.0469V10.8291L3.81628 13.2601L2.6528 2.89062ZM15.5469 17.8906C14.7184 17.8906 14.0469 17.2191 14.0469 16.3906C14.0469 15.5622 14.7184 14.8906 15.5469 14.8906C16.3753 14.8906 17.0469 15.5622 17.0469 16.3906C17.0469 17.2191 16.3753 17.8906 15.5469 17.8906ZM5.54688 17.8906C4.71845 17.8906 4.04688 17.2191 4.04688 16.3906C4.04688 15.5622 4.71845 14.8906 5.54688 14.8906C6.3753 14.8906 7.04688 15.5622 7.04688 16.3906C7.04688 17.2191 6.3753 17.8906 5.54688 17.8906Z" fill="#9D0AFF"/>
</g>
<defs>
<clipPath id="clip0_2316_602">
<rect width="17" height="17" fill="white" transform="translate(0.046875 0.890625)"/>
</clipPath>
</defs>
</svg>
